<svg xmlns="http://www.w3.org/2000/svg" viewBox="0 0 1600 1000" preserveAspectRatio="xMidYMid slice">
  <defs>
    <radialGradient id="nebulaA" cx="20%" cy="10%" r="70%">
      <stop offset="0%" stop-color="#164e63" stop-opacity=".75"/>
      <stop offset="42%" stop-color="#312e81" stop-opacity=".22"/>
      <stop offset="100%" stop-color="#020617" stop-opacity="0"/>
    </radialGradient>
    <radialGradient id="nebulaB" cx="88%" cy="20%" r="48%">
      <stop offset="0%" stop-color="#f59e0b" stop-opacity=".32"/>
      <stop offset="45%" stop-color="#be185d" stop-opacity=".16"/>
      <stop offset="100%" stop-color="#020617" stop-opacity="0"/>
    </radialGradient>
    <filter id="blur">
      <feGaussianBlur stdDeviation="18"/>
    </filter>
  </defs>
  <rect width="1600" height="1000" fill="#020617"/>
  <rect width="1600" height="1000" fill="url(#nebulaA)"/>
  <rect width="1600" height="1000" fill="url(#nebulaB)"/>
  <g opacity=".9">
    <circle cx="158" cy="162" r="1.8" fill="#e0f2fe"/>
    <circle cx="241" cy="282" r="1.2" fill="#fef3c7"/>
    <circle cx="396" cy="108" r="1.4" fill="#dbeafe"/>
    <circle cx="610" cy="234" r="1.6" fill="#fff7ed"/>
    <circle cx="812" cy="132" r="1.1" fill="#f8fafc"/>
    <circle cx="1038" cy="304" r="1.5" fill="#cffafe"/>
    <circle cx="1294" cy="154" r="1.3" fill="#fdf2f8"/>
    <circle cx="1450" cy="336" r="1.8" fill="#e0f2fe"/>
    <circle cx="136" cy="736" r="1.5" fill="#f8fafc"/>
    <circle cx="328" cy="842" r="1.1" fill="#cffafe"/>
    <circle cx="522" cy="688" r="1.6" fill="#fef3c7"/>
    <circle cx="784" cy="804" r="1.2" fill="#dbeafe"/>
    <circle cx="1096" cy="742" r="1.7" fill="#fff7ed"/>
    <circle cx="1354" cy="876" r="1.2" fill="#f8fafc"/>
  </g>
  <g fill="none" opacity=".22" stroke-linecap="round">
    <path d="M105 632c232-132 488-168 768-108 208 44 392 31 552-39" stroke="#22d3ee" stroke-width="1.3"/>
    <path d="M236 246c226 84 473 91 741 20 154-41 291-42 411-5" stroke="#f0abfc" stroke-width="1.1"/>
    <path d="M928 618c140-92 272-95 397-9" stroke="#f59e0b" stroke-width="1.2"/>
  </g>
  <g filter="url(#blur)" opacity=".42">
    <circle cx="250" cy="178" r="86" fill="#22d3ee"/>
    <circle cx="1350" cy="198" r="76" fill="#f59e0b"/>
    <circle cx="1214" cy="790" r="88" fill="#ec4899"/>
  </g>
</svg>
